<svg width="128" height="32" viewBox="0 0 128 32" fill="none" xmlns="http://www.w3.org/2000/svg">
<path d="M26.0792 3.52346C23.3374 1.3191 19.8537 0 16.0619 0C7.22568 0 0.0625 7.16344 0.0625 16C0.0625 24.8366 7.22568 32 16.0619 32C22.0866 32 27.3335 28.6699 30.0625 23.75H24.3172C22.2197 25.9814 19.241 27.375 15.9369 27.375C9.58587 27.375 4.43734 22.2263 4.43734 15.875C4.43734 9.52373 9.58587 4.375 15.9369 4.375C18.5543 4.375 20.9675 5.24949 22.9002 6.72224L26.0792 3.52346Z" fill="white"/>
<path d="M26.8407 4.17581L23.6715 7.36477C23.8091 7.48993 23.9437 7.61838 24.0751 7.75H29.7732C28.9714 6.42021 27.9817 5.21655 26.8407 4.17581Z" fill="white"/>
<path fill-rule="evenodd" clip-rule="evenodd" d="M17.0023 22.75L35.3211 4.31805L30.9919 0L17.003 14.0753L11.6646 8.75L7.35426 13.0869L17.0023 22.75Z" fill="#514BE0"/>
<path d="M117.715 21.275L117.751 7.75H119.126V15.6543L124.19 11.25H126.09L120.576 16.0043L126.49 21.275H124.515L119.126 16.4043L119.09 21.275H117.715Z" fill="white"/>
<path d="M111.165 21.275V11.25H112.515V13.4889C112.832 12.7056 113.29 12.1222 113.89 11.7389C114.49 11.3389 115.165 11.1389 115.915 11.1389C116.182 11.1389 116.432 11.1389 116.715 11.2389V12.7389C116.305 12.6758 115.88 12.6139 115.465 12.6139C114.498 12.6139 113.765 12.9389 113.265 13.5889C112.765 14.2222 112.515 15.2889 112.515 16.7889V21.275H111.165Z" fill="white"/>
<path d="M99.9899 16.275C99.9899 15.3917 100.132 14.6083 100.415 13.925C100.715 13.2417 101.09 12.675 101.54 12.225C102.007 11.775 102.532 11.4417 103.115 11.225C103.698 10.9917 104.282 10.875 104.865 10.875C105.648 10.875 106.398 11.0917 107.115 11.525C107.848 11.9583 108.398 12.5917 108.765 13.425L108.79 11.25H110.165L110.14 21.275H108.765V19.125C108.382 19.9417 107.832 20.5667 107.115 21C106.398 21.4333 105.648 21.65 104.865 21.65C104.282 21.65 103.698 21.5333 103.115 21.3C102.532 21.0833 102.007 20.75 101.54 20.3C101.09 19.85 100.715 19.2917 100.415 18.625C100.132 17.9417 99.9899 17.1583 99.9899 16.275ZM105.015 12.175C103.965 12.175 103.098 12.55 102.415 13.3C101.748 14.0333 101.415 15.025 101.415 16.275C101.415 17.525 101.748 18.5167 102.415 19.25C103.098 19.9833 103.965 20.35 105.015 20.35C106.048 20.35 106.94 19.9833 107.69 19.25C108.44 18.5167 108.815 17.525 108.815 16.275C108.815 15.0083 108.44 14.0083 107.69 13.275C106.957 12.5417 106.065 12.175 105.015 12.175Z" fill="white"/>
<path d="M82.9149 21.275V11.25H84.2899V13.6C84.6399 12.6667 85.1566 11.9833 85.8399 11.55C86.5232 11.1 87.2566 10.875 88.0399 10.875C88.8899 10.875 89.6233 11.1167 90.2399 11.6C90.8566 12.0667 91.2733 12.7417 91.4899 13.625C91.8233 12.675 92.3483 11.9833 93.0649 11.55C93.7816 11.1 94.5566 10.875 95.3899 10.875C96.4399 10.875 97.2983 11.2417 97.9649 11.975C98.6483 12.6917 98.9899 13.7167 98.9899 15.05V21.275H97.6399V15.45C97.6399 14.4167 97.4233 13.6167 96.9899 13.05C96.5733 12.4667 95.8982 12.175 94.9649 12.175C94.0316 12.175 93.2399 12.5333 92.5899 13.25C91.9566 13.95 91.6399 15.0583 91.6399 16.575V21.275H90.2649V15.45C90.2649 14.4167 90.0483 13.6167 89.6149 13.05C89.1983 12.4667 88.5232 12.175 87.5899 12.175C86.6566 12.175 85.8733 12.5333 85.2399 13.25C84.6066 13.95 84.2899 15.0583 84.2899 16.575V21.275H82.9149Z" fill="white"/>
<path d="M76.5649 21.6501C75.7316 21.6501 74.9732 21.5084 74.2899 21.2251C73.6066 20.9418 73.0232 20.5501 72.5399 20.0501C72.0566 19.5501 71.6816 18.9584 71.4149 18.2751C71.1482 17.5751 71.0149 16.8168 71.0149 16.0001C71.0149 15.1668 71.1482 14.4084 71.4149 13.7251C71.6982 13.0251 72.0816 12.4251 72.5649 11.9251C73.0649 11.4251 73.6566 11.0418 74.3399 10.7751C75.0232 10.4918 75.7566 10.3501 76.5399 10.3501C78.1399 10.3501 79.4316 10.8501 80.4149 11.8501C81.4149 12.8334 81.9149 14.1251 81.9149 15.7251C81.9149 15.8918 81.9066 16.0584 81.8899 16.2251C81.8732 16.3751 81.8566 16.5251 81.8399 16.6751H73.7899C73.8899 17.5918 74.1816 18.2834 74.6649 18.7501C75.1482 19.2168 75.7816 19.4501 76.5649 19.4501C77.1982 19.4501 77.7316 19.3168 78.1649 19.0501C78.5982 18.7668 78.8732 18.4001 78.9899 17.9501H81.7399C81.4566 19.1168 80.8482 20.0251 79.9149 20.6751C78.9816 21.3251 77.8649 21.6501 76.5649 21.6501ZM76.5149 12.5501C75.7982 12.5501 75.1982 12.7418 74.7149 13.1251C74.2316 13.4918 73.9316 14.0668 73.8149 14.8501H79.1649C79.0982 14.1001 78.8232 13.5334 78.3399 13.1501C77.8566 12.7501 77.2482 12.5501 76.5149 12.5501Z" fill="white"/>
<path d="M69.6137 13.8501H66.9387C66.922 13.3668 66.7387 13.0084 66.3887 12.7751C66.0553 12.5251 65.6053 12.4001 65.0387 12.4001C64.5553 12.4001 64.1637 12.4834 63.8637 12.6501C63.5803 12.8168 63.4387 13.0584 63.4387 13.3751C63.4387 13.6918 63.5553 13.9418 63.7887 14.1251C64.0387 14.3084 64.422 14.4584 64.9387 14.5751L67.4137 15.1251C68.2303 15.2918 68.8637 15.6084 69.3137 16.0751C69.7803 16.5418 70.0137 17.1918 70.0137 18.0251C70.0137 19.0418 69.5887 19.9001 68.7387 20.6001C67.8887 21.3001 66.7637 21.6501 65.3637 21.6501C63.947 21.6501 62.7803 21.3001 61.8637 20.6001C60.9637 19.8834 60.4887 18.9668 60.4387 17.8501H63.1637C63.2303 18.4501 63.4637 18.8918 63.8637 19.1751C64.2803 19.4584 64.8137 19.6001 65.4637 19.6001C66.0303 19.6001 66.472 19.4918 66.7887 19.2751C67.1053 19.0418 67.2637 18.7418 67.2637 18.3751C67.2637 18.0751 67.147 17.8334 66.9137 17.6501C66.6803 17.4668 66.3553 17.3334 65.9387 17.2501L63.7887 16.7501C62.8887 16.5334 62.1553 16.1751 61.5887 15.6751C61.0387 15.1751 60.7637 14.4834 60.7637 13.6001C60.7637 12.6168 61.147 11.8334 61.9137 11.2501C62.6803 10.6501 63.7387 10.3501 65.0887 10.3501C66.4053 10.3501 67.472 10.6501 68.2887 11.2501C69.1053 11.8334 69.547 12.7001 69.6137 13.8501Z" fill="white"/>
<path d="M48.1636 16.0001C48.1636 15.1001 48.2969 14.3001 48.5636 13.6001C48.8469 12.8834 49.2136 12.2918 49.6636 11.8251C50.1302 11.3418 50.6552 10.9751 51.2386 10.7251C51.8219 10.4751 52.4136 10.3501 53.0136 10.3501C53.7302 10.3501 54.4219 10.5251 55.0886 10.8751C55.7552 11.2251 56.2969 11.7584 56.7136 12.4751V10.7251H59.4386V21.2751H56.7136V19.5251C56.2969 20.2418 55.7552 20.7751 55.0886 21.1251C54.4219 21.4751 53.7302 21.6501 53.0136 21.6501C52.4136 21.6501 51.8219 21.5251 51.2386 21.2751C50.6552 21.0251 50.1302 20.6668 49.6636 20.2001C49.2136 19.7168 48.8469 19.1251 48.5636 18.4251C48.2969 17.7084 48.1636 16.9001 48.1636 16.0001ZM53.7636 12.7251C52.8969 12.7251 52.2052 13.0418 51.6886 13.6751C51.1886 14.3084 50.9386 15.0834 50.9386 16.0001C50.9386 16.9168 51.1886 17.6918 51.6886 18.3251C52.2052 18.9584 52.8969 19.2751 53.7636 19.2751C54.6136 19.2751 55.3219 18.9918 55.8886 18.4251C56.4719 17.8418 56.7636 17.0334 56.7636 16.0001C56.7636 14.9668 56.4719 14.1668 55.8886 13.6001C55.3219 13.0168 54.6136 12.7251 53.7636 12.7251Z" fill="white"/>
<path d="M39.15 16.0001C39.15 17.0834 39.4 17.9168 39.9 18.5001C40.4167 19.0834 41.0583 19.3751 41.825 19.3751C42.425 19.3751 42.9333 19.2084 43.35 18.8751C43.7833 18.5251 44.0917 18.0168 44.275 17.3501H47.1C46.8167 18.8168 46.1833 19.9001 45.2 20.6001C44.2167 21.3001 43.1167 21.6501 41.9 21.6501C41.15 21.6501 40.4333 21.5251 39.75 21.2751C39.0833 21.0084 38.5 20.6418 38 20.1751C37.5 19.6918 37.1 19.1001 36.8 18.4001C36.5167 17.6834 36.375 16.8834 36.375 16.0001C36.375 15.1168 36.5167 14.3251 36.8 13.6251C37.1 12.9251 37.5 12.3334 38 11.8501C38.5 11.3668 39.0833 11.0001 39.75 10.7501C40.4333 10.4834 41.15 10.3501 41.9 10.3501C43.1333 10.3501 44.2417 10.7084 45.225 11.4251C46.2083 12.1251 46.8333 13.2251 47.1 14.7251H44.275C44.1083 14.0418 43.8083 13.5251 43.375 13.1751C42.9583 12.8084 42.4417 12.6251 41.825 12.6251C41.0583 12.6251 40.4167 12.9168 39.9 13.5001C39.4 14.0834 39.15 14.9168 39.15 16.0001Z" fill="white"/>
</svg>
